<svg class="svg-icon" style="width: 1em; height: 1em;vertical-align: middle;fill: currentColor;overflow: hidden;" viewBox="0 0 1024 1024" version="1.1" xmlns="http://www.w3.org/2000/svg"><path d="M588.56 575.75m-298.5 0a298.5 298.5 0 1 0 597 0 298.5 298.5 0 1 0-597 0Z" fill="#BAD4FF" /><path d="M514.21 98.23c-228.74 0-414.84 186.08-414.84 414.84a424.84 424.84 0 0 0 6.52 71c0 0.13 0.25 0.08 0.29 0.2a13.66 13.66 0 0 0 13.08 10.11 13.83 13.83 0 0 0 13.83-13.83 12 12 0 0 0-0.27-1.33l0.24-0.11a388.14 388.14 0 0 1-6-66C127 299.25 300.38 125.9 514.21 125.9S901.4 299.25 901.4 513.08 728.05 900.27 514.21 900.27c-142.9 0-267.39-77.64-334.47-192.82 0-0.07-0.09-0.11-0.12-0.18-0.17-0.3-0.37-0.59-0.55-0.89A13.69 13.69 0 0 0 167 699a13.83 13.83 0 0 0-13.83 13.82 13.56 13.56 0 0 0 2.76 7.87l-0.23 0.14c71.9 123.6 205.5 207.08 358.51 207.08 228.75 0 414.84-186.08 414.84-414.84S743 98.23 514.21 98.23z" fill="#3585F9" /><path d="M452.481747 622.81078m9.779287-9.779287l219.471802-219.471802q9.779287-9.779287 19.558574 0l0 0q9.779287 9.779287 0 19.558573l-219.471803 219.471803q-9.779287 9.779287-19.558573 0l0 0q-9.779287-9.779287 0-19.558574Z" fill="#3585F9" /><path d="M317.342708 487.73711m9.779287-9.779287l0 0q9.779287-9.779287 19.558573 0l135.071538 135.071538q9.779287 9.779287 0 19.558573l0 0q-9.779287 9.779287-19.558574 0l-135.071537-135.071537q-9.779287-9.779287 0-19.558574Z" fill="#3585F9" /></svg>